<svg width="64" height="64" viewBox="0 0 64 64" fill="none" xmlns="http://www.w3.org/2000/svg">
<path d="M0 32C0 14.3269 14.3269 0 32 0C49.6731 0 64 14.3269 64 32C64 49.6731 49.6731 64 32 64C14.3269 64 0 49.6731 0 32Z" fill="#1B1C30"/>
<path fill-rule="evenodd" clip-rule="evenodd" d="M38 27C38 30.3137 35.3137 33 32 33C28.6863 33 26 30.3137 26 27C26 23.6863 28.6863 21 32 21C35.3137 21 38 23.6863 38 27ZM36 27C36 29.2091 34.2091 31 32 31C29.7909 31 28 29.2091 28 27C28 24.7909 29.7909 23 32 23C34.2091 23 36 24.7909 36 27Z" fill="white"/>
<path fill-rule="evenodd" clip-rule="evenodd" d="M32.0001 34C29.0649 34 26.9487 34.6088 25.4306 35.5217C23.9065 36.4383 23.0505 37.6224 22.5777 38.6581C22.1792 39.5311 22.3606 40.4207 22.89 41.0546C23.3947 41.6587 24.1794 42 25.0001 42H39C39.8207 42 40.6053 41.6588 41.11 41.0546C41.6394 40.4208 41.8208 39.5311 41.4223 38.6582C40.9496 37.6225 40.0936 36.4383 38.5695 35.5218C37.0515 34.6088 34.9352 34 32.0001 34ZM24.3972 39.4886C24.7253 38.7697 25.3281 37.9172 26.4613 37.2357C27.6007 36.5506 29.3403 36 32.0001 36C34.6599 36 36.3995 36.5506 37.5388 37.2357C38.672 37.9172 39.2748 38.7697 39.6029 39.4886C39.6417 39.5735 39.64 39.6245 39.6361 39.6506C39.6316 39.6803 39.617 39.7222 39.5751 39.7724C39.4849 39.8804 39.2839 40 39 40H25.0001C24.7161 40 24.5152 39.8804 24.425 39.7724C24.383 39.7222 24.3684 39.6803 24.364 39.6506C24.3601 39.6245 24.3584 39.5735 24.3972 39.4886Z" fill="white"/>
<path d="M32 63C14.8792 63 1 49.1208 1 32H-1C-1 50.2254 13.7746 65 32 65V63ZM63 32C63 49.1208 49.1208 63 32 63V65C50.2254 65 65 50.2254 65 32H63ZM32 1C49.1208 1 63 14.8792 63 32H65C65 13.7746 50.2254 -1 32 -1V1ZM32 -1C13.7746 -1 -1 13.7746 -1 32H1C1 14.8792 14.8792 1 32 1V-1Z" fill="white"/>
</svg>
