<svg width="12" height="10" viewBox="0 0 12 10" fill="none" xmlns="http://www.w3.org/2000/svg">
<path d="M5.42371 0.99384C5.55388 1.12401 5.55388 1.33507 5.42371 1.46524L2.55559 4.33336H11.6661C11.8502 4.33336 11.9994 4.4826 11.9994 4.6667V5.33336C11.9994 5.51746 11.8502 5.6667 11.6661 5.6667H2.55408L5.4237 8.53631C5.55388 8.66649 5.55388 8.87755 5.4237 9.00772L4.9523 9.47913C4.82212 9.6093 4.61107 9.6093 4.48089 9.47912L0.238256 5.23648C0.108081 5.10631 0.108081 4.89525 0.238256 4.76508L4.4809 0.522436C4.61107 0.392261 4.82213 0.392261 4.9523 0.522436L5.42371 0.99384Z" fill="#567AE8"/>
</svg>
