<svg width="20" height="20" viewBox="0 0 20 20" fill="none" xmlns="http://www.w3.org/2000/svg">
<path d="M20 6.07143C20 5.78727 19.8871 5.51475 19.6862 5.31381C19.4853 5.11288 19.2127 5 18.9286 5H15C14.9053 5 14.8144 4.96237 14.7475 4.8954C14.6805 4.82842 14.6429 4.73758 14.6429 4.64286C14.6429 3.41149 14.1537 2.23057 13.283 1.35986C12.4123 0.489157 11.2314 0 10 0C8.76864 0 7.58771 0.489157 6.717 1.35986C5.8463 2.23057 5.35714 3.41149 5.35714 4.64286C5.35714 4.73758 5.31952 4.82842 5.25254 4.8954C5.18556 4.96237 5.09472 5 5 5H1.07143C0.787268 5 0.514746 5.11288 0.313814 5.31381C0.112882 5.51475 0 5.78727 0 6.07143C0 6.35559 0.112882 6.62811 0.313814 6.82904C0.514746 7.02997 0.787268 7.14286 1.07143 7.14286H2.5C2.59472 7.14286 2.68556 7.18048 2.75254 7.24746C2.81952 7.31444 2.85714 7.40528 2.85714 7.5V17.8571C2.85714 18.4255 3.08291 18.9705 3.48477 19.3724C3.88664 19.7742 4.43168 20 5 20H15C15.5683 20 16.1134 19.7742 16.5152 19.3724C16.9171 18.9705 17.1429 18.4255 17.1429 17.8571V7.5C17.1429 7.40528 17.1805 7.31444 17.2475 7.24746C17.3144 7.18048 17.4053 7.14286 17.5 7.14286H18.9286C19.2127 7.14286 19.4853 7.02997 19.6862 6.82904C19.8871 6.62811 20 6.35559 20 6.07143ZM7.5 4.64286C7.5 3.97982 7.76339 3.34393 8.23223 2.87509C8.70107 2.40625 9.33696 2.14286 10 2.14286C10.663 2.14286 11.2989 2.40625 11.7678 2.87509C12.2366 3.34393 12.5 3.97982 12.5 4.64286C12.5 4.73758 12.4624 4.82842 12.3954 4.8954C12.3284 4.96237 12.2376 5 12.1429 5H7.85714C7.76242 5 7.67158 4.96237 7.6046 4.8954C7.53763 4.82842 7.5 4.73758 7.5 4.64286ZM8.21429 15.7143C8.21429 15.9984 8.1014 16.271 7.90047 16.4719C7.69954 16.6728 7.42702 16.7857 7.14286 16.7857C6.8587 16.7857 6.58617 16.6728 6.38524 16.4719C6.18431 16.271 6.07143 15.9984 6.07143 15.7143V10C6.07143 9.71584 6.18431 9.44332 6.38524 9.24239C6.58617 9.04145 6.8587 8.92857 7.14286 8.92857C7.42702 8.92857 7.69954 9.04145 7.90047 9.24239C8.1014 9.44332 8.21429 9.71584 8.21429 10V15.7143ZM14.2857 15.7143C14.2857 15.9984 14.1728 16.271 13.9719 16.4719C13.771 16.6728 13.4984 16.7857 13.2143 16.7857C12.9301 16.7857 12.6576 16.6728 12.4567 16.4719C12.2557 16.271 12.1429 15.9984 12.1429 15.7143V10C12.1429 9.71584 12.2557 9.44332 12.4567 9.24239C12.6576 9.04145 12.9301 8.92857 13.2143 8.92857C13.4984 8.92857 13.771 9.04145 13.9719 9.24239C14.1728 9.44332 14.2857 9.71584 14.2857 10V15.7143Z" fill="#4C555F"/>
</svg>
