<svg width="696" height="266" viewBox="0 0 696 266" fill="none" xmlns="http://www.w3.org/2000/svg">
<g clip-path="url(#clip0_21016_196571)">
<path d="M0 27.2C0 12.1779 12.1779 0 27.2 0H668.8C683.822 0 696 12.1779 696 27.2V238.8C696 253.822 683.822 266 668.8 266H27.2C12.1779 266 0 253.822 0 238.8V27.2Z" fill="white"/>
<g clip-path="url(#clip1_21016_196571)">
<rect y="-10.2" width="697" height="413.895" rx="13.2447" fill="#18B4AD"/>
<mask id="mask0_21016_196571" style="mask-type:alpha" maskUnits="userSpaceOnUse" x="404" y="-48" width="276" height="276">
<circle cx="542.3" cy="90.1" r="137.7" fill="#118D88"/>
</mask>
<g mask="url(#mask0_21016_196571)">
<rect width="321.094" height="405.073" transform="translate(358.902 -64.8905)" fill="#118D88"/>
<g opacity="0.95">
<path fill-rule="evenodd" clip-rule="evenodd" d="M587.341 40.3496C593.347 54.5757 603.555 64.4601 608.961 79.2524C612.168 88.0247 613.504 97.5627 613.585 107.331C613.629 112.637 613.536 117.947 613.512 123.252C613.487 128.427 613.346 133.568 612.906 138.709C612.463 143.878 611.967 148.985 611.749 154.185C611.579 158.237 611.501 162.95 610.123 166.646C609.028 169.585 606.243 170.016 605.504 166.451C605.094 164.469 605.145 162.257 605.191 160.22C605.249 157.607 605.401 154.998 605.479 152.385C605.792 141.901 605.386 131.416 605.598 120.927C605.805 110.68 607.126 100.444 605.664 90.2655C604.457 81.8599 601.39 74.6419 597.866 67.7221C594.475 61.0646 590.785 54.5689 588.493 46.9961C587.835 44.8213 587.327 42.5675 587.083 40.2289C587.189 40.1795 587.276 40.2197 587.341 40.3496Z" fill="#C1DEE2"/>
<path fill-rule="evenodd" clip-rule="evenodd" d="M585.716 68.4152C586.905 69.2713 587.569 70.5236 588.373 71.7592C589.372 73.2953 590.547 74.6822 591.547 76.2194C593.63 79.4243 595.461 82.8261 597.36 86.1609C600.966 92.4906 603.704 99.2369 605.06 106.56C606.465 114.149 606.844 121.982 607.434 129.684C608.059 137.847 608.689 146.07 608.772 154.265C608.809 157.937 609.008 161.834 608.566 165.48C608.291 167.749 607.263 169.684 604.947 169.665C600.027 169.626 597.718 164.194 596.753 159.738C595.332 153.178 595.049 146.209 595.274 139.5C595.545 131.41 596.954 123.441 597.563 115.382C598.209 106.851 597.844 98.4706 594.902 90.4379C593.416 86.3786 591.691 82.4166 590.142 78.3842C589.482 76.6673 588.942 74.9038 588.051 73.305C587.06 71.5267 585.83 69.9125 585.054 67.9971C585.274 68.1366 585.495 68.2759 585.716 68.4152Z" fill="#89C5CC"/>
<path fill-rule="evenodd" clip-rule="evenodd" d="M642.38 51.4026C642.531 51.2858 642.682 51.1689 642.833 51.0518C642.398 52.8768 641.613 54.3593 641.013 56.0276C640.474 57.5274 640.201 59.2247 639.838 60.8641C638.985 64.7145 637.999 68.4781 637.194 72.3612C635.599 80.0454 635.9 88.3235 636.946 96.8487C637.934 104.902 639.496 112.942 640.241 120.994C640.858 127.671 641.123 134.557 640.534 140.927C640.134 145.254 638.823 150.42 635.251 149.983C633.569 149.777 632.692 147.759 632.338 145.481C631.771 141.822 631.652 137.975 631.431 134.337C630.937 126.216 630.838 118.12 630.741 110.082C630.649 102.499 630.394 94.765 630.903 87.3726C631.393 80.2394 632.926 73.8117 635.118 67.8811C636.273 64.7565 637.373 61.5589 638.67 58.5809C639.293 57.1525 640.053 55.8903 640.675 54.463C641.176 53.315 641.574 52.137 642.38 51.4026Z" fill="#C1DEE2"/>
<path fill-rule="evenodd" clip-rule="evenodd" d="M587.224 91.9236C587.875 90.8347 589.307 94.4257 589.525 94.8773C589.433 94.6527 589.34 94.4283 589.247 94.2042C590.538 96.3449 591.72 98.5733 592.454 101.028C593.181 103.458 593.805 105.937 594.487 108.384C595.767 112.975 597.417 117.436 598.577 122.069C599.706 126.583 599.991 131.021 599.718 135.691C599.434 140.544 599.26 145.471 599.591 150.322C599.75 152.639 600.505 154.797 601.022 157.027C601.54 159.259 601.948 161.522 602.561 163.726C602.702 163.439 602.719 164.399 602.719 164.472C602.715 165.023 602.638 165.485 602.46 166.007C602.004 167.35 601.149 168.491 599.849 168.862C597.499 169.531 595.317 167.4 594.559 165.15C593.472 161.921 592.873 158.353 592.355 154.959C591.88 151.848 591.768 148.717 591.909 145.562C592.187 139.341 593.316 133.201 593.622 126.981C593.954 120.21 592.608 113.848 591.482 107.257C590.939 104.081 590.42 100.935 589.364 97.9097C588.937 96.6845 588.379 95.6032 587.795 94.4718C587.462 93.8281 586.79 92.6798 587.224 91.9236Z" fill="#C1DEE2"/>
<path fill-rule="evenodd" clip-rule="evenodd" d="M606.299 81.3487C606.03 89.1059 605.565 96.8042 604.528 104.48C603.469 112.312 602.253 120.118 601.235 127.958C600.243 135.589 599.204 143.347 599.342 151.085C599.444 156.784 598.496 166.426 604.845 169.239C611.276 172.088 612.655 159.922 613.078 155.907C613.887 148.203 613.625 140.418 613.232 132.672C612.829 124.722 612.156 116.813 611.322 108.892C610.395 100.094 609.669 91.2556 609.085 82.4324C608.796 78.0682 608.725 73.7112 608.805 69.3459C608.88 65.2266 608.723 61.0647 607.254 57.1537C607.177 57.2093 607.101 57.265 607.024 57.3204" fill="#69A1AC"/>
<path fill-rule="evenodd" clip-rule="evenodd" d="M639.495 105.923C638.339 107.603 637.173 109.266 636.081 111.045C634.127 114.229 632.36 117.769 631.828 122.32C630.716 131.846 631.608 142.133 631.823 151.95C631.868 153.956 631.613 155.902 632.406 157.811C633.125 159.542 634.47 160.862 635.751 160.855C638.495 160.839 638.076 154.141 638.08 151.193C638.089 146.026 637.508 140.807 637.558 135.645C637.608 130.531 637.92 125.402 638.663 120.545C639.416 115.629 640.519 110.908 641.974 106.503C642.176 105.891 643.625 101.167 642.256 101.981" fill="#89C5CC"/>
<path fill-rule="evenodd" clip-rule="evenodd" d="M627.385 55.1188C625.582 55.1188 625.593 64.0832 625.538 65.2346C625.342 69.3899 625.388 73.5462 625.264 77.7023C624.993 86.7721 624.66 95.9213 623.293 104.886C622.558 109.712 621.705 114.517 620.787 119.307C619.867 124.11 618.632 128.908 618.027 133.772C617.445 138.448 617.774 143.216 617.853 147.915C617.933 152.643 618.076 157.379 618.698 162.066C618.851 163.222 619.031 164.375 619.223 165.525C619.383 166.483 619.29 167.671 619.561 168.581C619.996 170.039 621.858 170.517 623.113 170.289C626.507 169.671 628.675 165.422 629.835 162.318C631.315 158.354 632.101 154.054 632.876 149.876C633.755 145.144 634.269 140.339 634.511 135.52C635.002 125.728 634.372 115.924 633.668 106.163C633.277 100.734 632.825 95.3296 632.133 89.9346C631.444 84.5626 630.56 79.2145 629.985 73.8267C629.567 69.9113 629.155 65.9906 628.884 62.0602C628.819 61.123 628.765 55.1188 627.385 55.1188Z" fill="#69A1AC"/>
<path fill-rule="evenodd" clip-rule="evenodd" d="M625.126 120.282C624.832 110.87 621.037 69.5289 620.174 58.1476C619.958 55.2989 617.879 43.4379 617.609 40.2085C616.878 41.1213 616.941 55.3296 616.949 58.5943C616.957 61.8237 616.556 64.9996 616.349 68.2116C616.138 71.4891 611.278 113.817 610.648 116.966C609.393 123.231 608.553 129.661 607.905 136.066C607.274 142.31 606.293 148.897 607.138 155.174C607.332 156.619 607.639 158.04 608.139 159.368C608.679 160.802 609.049 162.128 609.483 163.629C610.181 166.046 611.443 168.168 613.383 169.166C617.36 171.212 619.495 166.58 620.577 162.547C622.306 156.107 623.416 149.561 623.936 142.798C624.512 135.315 625.361 127.816 625.126 120.282Z" fill="#89C5CC"/>
<path d="M643.512 147.978H584.365C583.614 147.978 583.005 148.585 583.005 149.333V208.301C583.005 209.049 583.614 209.656 584.365 209.656H643.512C644.263 209.656 644.872 209.049 644.872 208.301V149.333C644.872 148.585 644.263 147.978 643.512 147.978Z" fill="white"/>
<path d="M581.649 154.754H577.57C576.819 154.754 576.21 155.361 576.21 156.11V229.989C576.21 230.738 576.819 231.345 577.57 231.345H581.649C582.4 231.345 583.009 230.738 583.009 229.989V156.11C583.009 155.361 582.4 154.754 581.649 154.754Z" fill="#C5CFD6"/>
<path d="M615.654 154.754H611.575C610.824 154.754 610.215 155.361 610.215 156.11V229.989C610.215 230.738 610.824 231.345 611.575 231.345H615.654C616.405 231.345 617.014 230.738 617.014 229.989V156.11C617.014 155.361 616.405 154.754 615.654 154.754Z" fill="#C5CFD6"/>
<path d="M650.317 154.754H646.238C645.487 154.754 644.878 155.361 644.878 156.11V229.989C644.878 230.738 645.487 231.345 646.238 231.345H650.317C651.068 231.345 651.676 230.738 651.676 229.989V156.11C651.676 155.361 651.068 154.754 650.317 154.754Z" fill="#C5CFD6"/>
</g>
</g>
<path fill-rule="evenodd" clip-rule="evenodd" d="M450.167 60.3613C452.847 57.2351 454.661 53.4038 454.358 49.1107C453.485 36.7413 436.159 39.4624 432.789 45.7054C429.419 51.9485 429.82 67.7845 434.175 68.9003C435.912 69.3453 439.613 68.2553 443.379 65.9992L441.015 82.62H454.973L450.167 60.3613Z" fill="#B28B67"/>
<path fill-rule="evenodd" clip-rule="evenodd" d="M426.607 37.0507C426.896 36.041 427.673 35.1764 428.721 34.92C428.975 34.8577 429.238 34.8326 429.499 34.8431C429.593 34.8468 429.619 34.8737 429.663 34.8085C429.695 34.7602 429.696 34.6421 429.709 34.5854C429.751 34.4088 429.803 34.2344 429.867 34.0645C430.087 33.4852 430.455 32.9724 430.899 32.5405C431.73 31.7324 432.852 31.1748 434.018 31.0739C434.657 31.0187 435.29 31.1217 435.894 31.3281C436.206 31.4349 436.509 31.5679 436.804 31.7149C436.893 31.7592 437.181 31.976 437.27 31.9619C437.369 31.9464 437.566 31.7033 437.647 31.6422C438.636 30.8877 439.858 30.5911 441.09 30.6002C442.482 30.6104 443.821 30.6795 444.981 31.5223C445.227 31.7007 445.461 31.8961 445.684 32.1018C445.801 32.2101 445.914 32.3225 446.023 32.4395C446.088 32.5101 446.152 32.5823 446.213 32.6564C446.317 32.7823 446.3 32.8236 446.446 32.7358C447.004 32.3986 447.651 32.241 448.303 32.3206C448.69 32.3679 449.067 32.4833 449.424 32.6353C449.546 32.6871 449.828 32.8934 449.957 32.8954C450.086 32.8974 450.364 32.7061 450.496 32.6575C451.212 32.3948 451.984 32.33 452.737 32.4514C453.513 32.5767 454.276 32.8845 454.934 33.3099C455.25 33.5145 455.526 33.7413 455.748 34.0455C455.844 34.1769 455.93 34.3159 456.039 34.4377C456.102 34.509 456.228 34.5822 456.262 34.6725C456.242 34.6184 457.111 34.2853 457.193 34.264C457.63 34.1505 458.075 34.1735 458.503 34.3135C459.308 34.5768 460 35.1671 460.569 35.7723C460.861 36.0832 461.117 36.4269 461.334 36.793C461.438 36.9683 461.533 37.1487 461.62 37.3329C461.662 37.4222 461.69 37.5338 461.746 37.6142C461.818 37.7178 461.866 37.7198 461.995 37.7649C462.654 37.9943 463.255 38.3825 463.712 38.907C464.174 39.4377 464.474 40.0913 464.6 40.7795C464.608 40.82 464.612 40.988 464.636 41.01C464.669 41.0402 464.801 41.0268 464.851 41.0327C465.025 41.0529 465.197 41.083 465.367 41.123C465.68 41.1967 465.985 41.3052 466.274 41.4471C467.399 42.0002 468.203 43.0371 468.597 44.2038C469.01 45.4283 469.003 46.8311 468.509 48.0327C468.429 48.2268 468.334 48.4152 468.223 48.5934C468.154 48.7028 468.132 48.7031 468.177 48.8179C468.226 48.9456 468.317 49.0697 468.376 49.1944C468.567 49.6016 468.702 50.0335 468.786 50.4745C468.925 51.1981 468.994 51.9584 468.857 52.6874C468.793 53.0259 468.682 53.3569 468.513 53.6584C468.427 53.8121 468.326 53.9579 468.212 54.0928C468.153 54.1628 468.09 54.2297 468.024 54.2938C467.986 54.3303 467.937 54.3624 467.905 54.4033C467.827 54.5029 467.811 54.421 467.851 54.5674C467.907 54.772 468.035 54.9739 468.113 55.173C468.193 55.3782 468.266 55.5862 468.333 55.7963C468.468 56.2217 468.582 56.6547 468.653 57.0952C468.79 57.941 468.766 58.8422 468.363 59.6184C468.191 59.9504 467.944 60.2416 467.645 60.4682C467.498 60.5791 467.339 60.6746 467.173 60.7531C467.087 60.7934 466.978 60.8108 466.939 60.893C466.897 60.9814 466.959 61.1571 466.974 61.256C467.097 62.1162 467.159 63.0194 466.902 63.8623C466.665 64.6388 466.143 65.3243 465.466 65.7782C464.152 66.6586 462.38 66.609 461 65.9041C460.64 65.7204 460.303 65.4922 460.002 65.2231C459.238 66.2465 457.664 66.2141 456.546 65.9225C455.153 65.5593 454.035 64.5968 453.391 63.3321C452.511 64.3974 450.663 64.0518 450.053 62.8961C449.903 62.6133 449.814 62.3016 449.771 61.9862C449.748 61.8203 449.763 61.653 449.745 61.4884C449.723 61.2787 449.582 61.075 449.501 60.8721C449.344 60.4774 449.246 60.0696 449.241 59.6438C449.239 59.4214 449.268 59.2048 449.289 58.9842C449.308 58.7857 449.253 58.6007 449.221 58.4048C449.578 58.4633 450.013 58.3675 450.35 58.2646C450.68 58.1636 450.99 57.8975 451.223 57.6546C451.764 57.0903 452.095 56.3507 452.321 55.6146C452.817 53.9989 452.614 52.0605 450.978 51.1738C450.217 50.7607 447.935 50.7621 447.027 50.9662C446.074 51.1809 444.992 53.2728 444.939 53.4695C444.906 53.5911 444.923 53.7418 444.81 53.8228C444.563 54.0011 444.155 53.6917 443.973 53.539C443.658 53.2755 443.434 52.9248 443.239 52.5694C442.816 51.795 442.474 50.9646 442.233 50.1169C442.047 49.4633 441.928 48.7894 441.685 48.1525C441.443 47.5187 441.062 46.9523 440.469 46.5933C439.825 46.2027 439.085 45.997 438.378 45.7516C437.676 45.5083 436.986 45.211 436.442 44.6949C436.323 44.5814 436.207 44.4608 436.11 44.3272C436.034 44.2217 435.959 44.0198 435.843 43.9529C435.663 43.8489 435.401 44.1194 435.245 44.2177C434.477 44.7024 433.837 45.3784 433.32 46.117C432.806 46.8514 432.384 47.5582 432.042 48.3784C431.787 48.9866 431.629 49.7657 431.182 50.2642C430.982 50.4868 429.499 50.6214 429.019 50.4271C428.538 50.2328 428 49.7282 427.838 49.4119C427.673 49.0883 427.634 48.7327 427.704 48.3784C427.746 48.1699 427.831 47.9752 427.877 47.7704C427.916 47.5984 427.951 47.4359 428.036 47.2783C428.195 46.9797 428.468 46.7651 428.797 46.6754C428.455 46.3617 428.171 45.9865 427.975 45.567C427.771 45.1313 427.598 44.6014 427.549 44.1231C427.509 43.7346 427.571 43.3321 427.785 42.9983C428.009 42.6481 428.407 42.4196 428.751 42.2012C428.225 41.7925 427.775 41.2955 427.406 40.7453C426.686 39.6752 426.242 38.3264 426.607 37.0507Z" fill="#191847"/>
<path fill-rule="evenodd" clip-rule="evenodd" d="M493.94 154.87H427.059C421.92 154.87 417.753 159.011 417.753 164.118V217.294C417.753 222.402 421.92 226.542 427.059 226.542H493.94C499.079 226.542 503.246 222.402 503.246 217.294V164.118C503.246 159.011 499.079 154.87 493.94 154.87ZM484.635 171.054C485.92 171.054 486.961 172.089 486.961 173.366V208.046C486.961 209.323 485.92 210.358 484.635 210.358H436.364C435.079 210.358 434.038 209.323 434.038 208.046V173.366C434.038 172.089 435.079 171.054 436.364 171.054H484.635Z" fill="#C5CFD6"/>
<path fill-rule="evenodd" clip-rule="evenodd" d="M376.166 224.611C383.617 208.22 389.006 193.948 391.169 186.417C394.873 173.524 397.691 162.178 398.403 157.941C400.101 147.837 385.339 147.249 383.388 152.27C380.435 159.87 375.279 184.841 369.085 222.558L376.166 224.611ZM462.6 173.172C455.763 170.486 431.821 162.08 420.274 159.703C416.955 159.02 413.739 158.385 410.715 157.811C401.728 156.106 397.071 172.22 405.728 173.458C427.285 176.542 457.846 179.726 460.462 180.083C464.127 180.584 466.897 174.859 462.6 173.172Z" fill="#B28B67"/>
<path fill-rule="evenodd" clip-rule="evenodd" d="M405.199 153.377L442.18 134.667V130.594H437.782C402.004 139.655 383.722 145.461 382.935 148.014C382.927 148.041 382.919 148.069 382.912 148.096C382.894 148.12 382.876 148.143 382.859 148.167C375.768 157.858 371.522 205.172 370.128 208.714L383.715 210.729C388.912 191.575 405.54 178.232 405.099 155.291C405.218 154.619 405.248 153.98 405.199 153.377Z" fill="#1F28CF"/>
<path fill-rule="evenodd" clip-rule="evenodd" d="M439.107 164.488C442.491 163.815 445.607 163.214 448.273 162.75C465.495 159.747 470.518 150.585 467.548 130.594L435.816 130.594C430.633 132.074 403.694 143.301 389.717 149.273C380.467 153.225 383.383 167.473 388.621 171.181C388.65 171.408 388.744 171.563 388.912 171.632C417.092 183.24 439.385 177.149 446.832 179.095L450.277 168.296L439.107 164.488Z" fill="#2B44FF"/>
<path fill-rule="evenodd" clip-rule="evenodd" d="M460.279 171.45C462.122 171.623 463.431 171.897 464.204 172.271C465.144 172.726 466.44 173.547 468.091 174.733C467.557 175.821 462.756 185.593 453.689 204.051C450.787 203.589 449.639 202.488 450.244 200.749C450.848 199.01 451.336 197.559 451.707 196.394L452.306 179.816C452.318 179.497 452.587 179.247 452.907 179.258C452.913 179.258 452.918 179.258 452.924 179.258L455.486 179.415C456.944 178.24 457.906 177.177 458.373 176.227C458.752 175.455 458.963 174.238 459.005 172.575L459.005 172.575C459.022 171.937 459.555 171.431 460.196 171.445C460.224 171.446 460.251 171.448 460.279 171.45Z" fill="#DB2721"/>
<path fill-rule="evenodd" clip-rule="evenodd" d="M379.555 221.573C380.206 223.299 380.531 224.59 380.531 225.447C380.531 226.49 380.357 228.011 380.007 230.01C378.79 230.01 367.856 230.01 347.205 230.01C346.353 227.21 346.845 225.698 348.681 225.474C350.518 225.251 352.043 225.049 353.258 224.869L368.504 218.114C368.798 217.984 369.141 218.115 369.272 218.407C369.274 218.412 369.277 218.417 369.279 218.422L370.259 220.785C371.959 221.573 373.34 221.967 374.403 221.967C375.267 221.967 376.46 221.62 377.981 220.927L377.981 220.927C378.565 220.661 379.256 220.916 379.523 221.496C379.535 221.521 379.546 221.547 379.555 221.573Z" fill="#DB2721"/>
<path fill-rule="evenodd" clip-rule="evenodd" d="M408.422 121.417L391.947 137.39C387.153 139.422 383.226 141.666 380.164 144.122C379.476 144.947 378.726 146.529 381.965 145.821C385.205 145.113 388.645 144.514 389.253 145.561C389.862 146.608 388.068 148.212 389.193 149.583C389.944 150.496 392.467 147.59 396.762 140.865L413.894 130.827L408.422 121.417ZM481.548 123.67L469.394 123.717C476.898 147.793 480.95 160.568 481.548 162.041C482.893 165.355 480.046 170.403 478.828 173.116C482.794 174.88 482.372 168.348 487.375 170.661C491.942 172.773 495.416 176.599 500.693 173.363C501.341 172.965 502.052 171.467 500.335 170.297C496.055 167.381 489.889 162.277 489.056 160.597C487.92 158.306 485.417 145.997 481.548 123.67Z" fill="#B28B67"/>
<path fill-rule="evenodd" clip-rule="evenodd" d="M447.009 72.986L441.98 72.1287C433.322 93.6247 418.205 113.157 396.631 130.724L412.934 150.409C434.506 125.395 447.803 99.5872 447.009 72.986Z" fill="#191847"/>
<path fill-rule="evenodd" clip-rule="evenodd" d="M468.932 135.796H424.15C434.525 110.726 439.712 89.4283 439.712 71.9045L453.221 69.9042C463.837 86.8733 466.835 107.766 468.932 135.796Z" fill="#DDE3E9"/>
<path fill-rule="evenodd" clip-rule="evenodd" d="M453.506 69.9137C453.505 69.9105 453.503 69.9073 453.501 69.9042L452.619 69.9042C451.564 69.9403 449.957 70.0053 447.798 70.0993L444.534 79.37C444.189 90.6731 442.172 113.452 438.485 147.706H467.84C467.763 150.072 467.636 152.46 467.46 154.87H489.287C486.022 118.262 474.099 89.9399 453.517 69.9042L453.506 69.9137V69.9137Z" fill="#2F3676"/>
<path fill-rule="evenodd" clip-rule="evenodd" d="M465.902 117.435C465.067 132.182 462.975 142.349 459.627 147.934H467.834C468.193 137.324 467.549 127.157 465.902 117.435V117.435Z" fill="black" fill-opacity="0.1"/>
<path fill-rule="evenodd" clip-rule="evenodd" d="M461.306 130.016L446.831 123.328V130.016H461.306Z" fill="white" fill-opacity="0.2"/>
<path fill-rule="evenodd" clip-rule="evenodd" d="M179.163 48.2097C185.284 48.2097 187.51 40.8912 190.987 36.875C193.475 34.0015 197.722 34.8584 198.979 30.8355C202.139 20.7197 193.68 13.6 182.644 13.6C171.608 13.6 164.168 19.8442 162.561 29.2309C160.954 38.6176 168.127 48.2097 179.163 48.2097Z" fill="#191847"/>
<path fill-rule="evenodd" clip-rule="evenodd" d="M179.87 41.6804C177.402 38.7874 175.732 35.242 176.011 31.2693C176.815 19.8229 192.769 22.3409 195.873 28.1181C198.976 33.8953 198.607 48.5497 194.596 49.5822C192.997 49.994 189.589 48.9853 186.121 46.8976L188.298 62.2782H175.445L179.87 41.6804Z" fill="#B28B67"/>
<path fill-rule="evenodd" clip-rule="evenodd" d="M185.291 34.3149C184.824 34.0681 184.289 33.928 183.72 33.928C181.899 33.928 180.423 35.3648 180.423 37.1372C180.423 37.8606 180.669 38.5281 181.083 39.0648C180.302 40.3509 179.769 41.7022 179.594 43.0913C176.886 43.0913 167.003 32.8583 176.849 23.2306C186.694 13.6029 200.922 27.3469 196.646 28.1485C194.188 28.6093 189.238 30.953 185.291 34.3149Z" fill="#191847"/>
<path fill-rule="evenodd" clip-rule="evenodd" d="M171.091 106.673L191.244 172.475L201.007 228.436H208.662L198.346 106.673H171.091Z" fill="#997659"/>
<path fill-rule="evenodd" clip-rule="evenodd" d="M163.87 106.673C165.239 142.802 163.628 161.438 163.321 164.72C163.015 168.003 158.82 189.287 148.888 229.537L157.045 226.74C172.741 189.824 178.09 170.638 179.89 165.79C181.69 160.943 186.471 141.237 194.234 106.673H163.87Z" fill="#B28B67"/>
<path fill-rule="evenodd" clip-rule="evenodd" d="M148.99 226.697C148.391 228.294 148.091 229.489 148.091 230.282C148.091 231.247 148.252 232.654 148.574 234.505C149.694 234.505 159.763 234.505 178.78 234.505C179.565 231.913 179.112 230.514 177.421 230.307C175.73 230.1 174.325 229.914 173.206 229.747L159.167 223.496C158.896 223.376 158.58 223.497 158.459 223.767C158.457 223.772 158.455 223.776 158.453 223.781L157.551 225.967C155.985 226.697 154.713 227.062 153.734 227.062C152.939 227.062 151.841 226.741 150.439 226.099L150.439 226.099C149.902 225.853 149.266 226.089 149.019 226.626C149.009 226.649 148.999 226.673 148.99 226.697Z" fill="#191847"/>
<path fill-rule="evenodd" clip-rule="evenodd" d="M199.349 226.697C198.75 228.294 198.45 229.489 198.45 230.282C198.45 231.247 198.611 232.654 198.933 234.505C200.053 234.505 210.122 234.505 229.139 234.505C229.924 231.913 229.471 230.514 227.78 230.307C226.089 230.1 224.684 229.914 223.565 229.747L209.525 223.496C209.255 223.376 208.939 223.497 208.818 223.767C208.816 223.772 208.814 223.776 208.812 223.781L207.91 225.967C206.344 226.697 205.072 227.062 204.093 227.062C203.298 227.062 202.2 226.741 200.798 226.099L200.798 226.099C200.261 225.853 199.625 226.089 199.378 226.626C199.368 226.649 199.358 226.673 199.349 226.697Z" fill="#191847"/>
<path fill-rule="evenodd" clip-rule="evenodd" d="M168.448 106.673L177.017 140.199H203.19L199.287 106.673H168.448Z" fill="#69A1AC"/>
<path fill-rule="evenodd" clip-rule="evenodd" d="M163.629 106.673C160.81 115.114 160.274 126.289 162.023 140.199H188.731L196.075 106.673H163.629Z" fill="#89C5CC"/>
<path fill-rule="evenodd" clip-rule="evenodd" d="M218.226 98.1733L233.397 112.954C237.811 114.835 241.428 116.911 244.248 119.184C244.882 119.948 245.572 121.411 242.589 120.756C239.605 120.101 236.438 119.546 235.877 120.515C235.317 121.484 236.969 122.969 235.933 124.237C235.242 125.082 232.919 122.393 228.963 116.17L213.187 106.881L218.226 98.1733ZM150.887 100.258L162.078 100.302C155.168 122.581 151.438 134.402 150.887 135.766C149.648 138.833 152.27 143.504 153.391 146.015C149.739 147.647 150.128 141.602 145.52 143.743C141.315 145.697 138.116 149.237 133.257 146.243C132.659 145.875 132.005 144.489 133.586 143.406C137.527 140.707 143.205 135.984 143.973 134.43C145.019 132.31 147.324 120.919 150.887 100.258Z" fill="#B28B67"/>
<path fill-rule="evenodd" clip-rule="evenodd" d="M182.662 53.3485L187.293 52.5552C195.267 72.4471 209.187 90.5215 229.054 106.778L214.041 124.994C194.176 101.847 181.932 77.9647 182.662 53.3485Z" fill="#E87613"/>
<path fill-rule="evenodd" clip-rule="evenodd" d="M162.511 111.476H203.749C194.195 88.276 189.418 68.568 189.418 52.3518L176.979 50.5007C167.203 66.2037 164.442 85.5371 162.511 111.476Z" fill="#DDE3E9"/>
<path fill-rule="evenodd" clip-rule="evenodd" d="M176.707 50.5095C176.708 50.5066 176.71 50.5037 176.711 50.5007L177.523 50.5007C178.495 50.5341 179.975 50.5944 181.963 50.6813L184.969 59.2602C185.287 69.7199 187.144 90.799 190.539 122.497H163.507C163.578 124.687 163.695 126.896 163.858 129.127H143.758C146.764 95.2501 157.744 69.0414 176.697 50.5007L176.707 50.5095V50.5095Z" fill="#FF9B21"/>
<path fill-rule="evenodd" clip-rule="evenodd" d="M165.268 94.4833C166.038 108.13 167.964 117.538 171.047 122.707H163.49C163.159 112.888 163.752 103.48 165.268 94.4833V94.4833Z" fill="black" fill-opacity="0.1"/>
<path fill-rule="evenodd" clip-rule="evenodd" d="M169.522 106.129L182.851 99.9402V106.129H169.522Z" fill="white" fill-opacity="0.2"/>
<g opacity="0.95">
<path d="M69.7983 85C87.6914 85 102.197 70.5388 102.197 52.7C102.197 34.8612 87.6914 20.4 69.7983 20.4C51.9051 20.4 37.3999 34.8612 37.3999 52.7C37.3999 70.5388 51.9051 85 69.7983 85Z" fill="#F2F2F2"/>
<path d="M69.809 28.9328C70.8218 28.9328 71.6428 28.1143 71.6428 27.1045C71.6428 26.0948 70.8218 25.2762 69.809 25.2762C68.7962 25.2762 67.9751 26.0948 67.9751 27.1045C67.9751 28.1143 68.7962 28.9328 69.809 28.9328Z" fill="black" fill-opacity="0.1"/>
<path d="M44.1132 54.5288C45.126 54.5288 45.947 53.7102 45.947 52.7005C45.947 51.6907 45.126 50.8722 44.1132 50.8722C43.1004 50.8722 42.2793 51.6907 42.2793 52.7005C42.2793 53.7102 43.1004 54.5288 44.1132 54.5288Z" fill="black" fill-opacity="0.1"/>
<path d="M95.4818 54.5288C96.4946 54.5288 97.3157 53.7102 97.3157 52.7005C97.3157 51.6907 96.4946 50.8722 95.4818 50.8722C94.469 50.8722 93.6479 51.6907 93.6479 52.7005C93.6479 53.7102 94.469 54.5288 95.4818 54.5288Z" fill="black" fill-opacity="0.1"/>
<path d="M69.809 80.1251C70.8218 80.1251 71.6428 79.3066 71.6428 78.2968C71.6428 77.2871 70.8218 76.4685 69.809 76.4685C68.7962 76.4685 67.9751 77.2871 67.9751 78.2968C67.9751 79.3066 68.7962 80.1251 69.809 80.1251Z" fill="black" fill-opacity="0.1"/>
<path fill-rule="evenodd" clip-rule="evenodd" d="M69.7904 30.7598L71.013 52.09H68.5679L69.7904 30.7598Z" fill="#AFB9C5"/>
<path fill-rule="evenodd" clip-rule="evenodd" d="M80.6077 63.485L69.3692 54.0045L71.0982 52.2807L80.6077 63.485Z" fill="#AFB9C5"/>
<path d="M69.8045 55.1379C71.155 55.1379 72.2497 54.0465 72.2497 52.7002C72.2497 51.3539 71.155 50.2625 69.8045 50.2625C68.4541 50.2625 67.3594 51.3539 67.3594 52.7002C67.3594 54.0465 68.4541 55.1379 69.8045 55.1379Z" fill="#C5CFD6"/>
</g>
</g>
</g>
<defs>
<clipPath id="clip0_21016_196571">
<path d="M0 27.2C0 12.1779 12.1779 0 27.2 0H668.8C683.822 0 696 12.1779 696 27.2V238.8C696 253.822 683.822 266 668.8 266H27.2C12.1779 266 0 253.822 0 238.8V27.2Z" fill="white"/>
</clipPath>
<clipPath id="clip1_21016_196571">
<rect y="-10.2" width="697" height="413.895" rx="13.2447" fill="white"/>
</clipPath>
</defs>
</svg>
