<svg width="12" height="12" viewBox="0 0 12 12" fill="none" xmlns="http://www.w3.org/2000/svg">
<path d="M11.5865 1.00026L11.0008 0.41452C10.838 0.251801 10.5742 0.251801 10.4115 0.41452L6.00076 4.82524L1.59001 0.414519C1.42729 0.251801 1.16347 0.251801 1.00076 0.414519L0.415012 1.00026C0.252293 1.16298 0.252293 1.4268 0.415012 1.58952L4.82576 6.00024L0.415016 10.411C0.252298 10.5737 0.252298 10.8376 0.415016 11.0003L1.00076 11.586C1.16348 11.7487 1.4273 11.7487 1.59002 11.586L6.00076 7.17524L10.4115 11.586C10.5742 11.7487 10.838 11.7487 11.0008 11.586L11.5865 11.0002C11.7492 10.8375 11.7492 10.5737 11.5865 10.411L7.17575 6.00024L11.5865 1.58952C11.7492 1.4268 11.7492 1.16298 11.5865 1.00026Z" fill="white"/>
</svg>
